<?xml version="1.0" encoding="utf-8"?>
<!-- Generator: Adobe Illustrator 16.0.0, SVG Export Plug-In . SVG Version: 6.00 Build 0)  -->
<!DOCTYPE svg PUBLIC "-//W3C//DTD SVG 1.1//EN" "http://www.w3.org/Graphics/SVG/1.1/DTD/svg11.dtd">
<svg version="1.1" id="Layer_1" xmlns="http://www.w3.org/2000/svg" xmlns:xlink="http://www.w3.org/1999/xlink" x="0px" y="0px"
	 width="150px" height="65px" viewBox="0 0 150 65" enable-background="new 0 0 150 65" xml:space="preserve">
<path fill-rule="evenodd" clip-rule="evenodd" fill="#E6E6E6" d="M127.951,39.36l12.593-4.396l5.675,6.269
	c-0.172,0.206-0.258,0.481-0.212,0.766c0.023,0.142,0.076,0.271,0.152,0.383l-19.66,9.464l-16.492-10.973l16.061-1.125
	c0.106,0.494,0.585,0.824,1.094,0.743c0.524-0.084,0.882-0.577,0.797-1.1L127.951,39.36L127.951,39.36z M107.139,16.933
	c0.131-0.02,0.25-0.067,0.356-0.133l6.596,7.761l-33.419,0.022l25.449-8.173C106.302,16.778,106.71,17.003,107.139,16.933
	L107.139,16.933z M107.705,16.623l6.749,7.938l16.019-0.011c0.06-0.404,0.374-0.741,0.801-0.809
	c0.523-0.084,1.019,0.271,1.103,0.793c0.047,0.285-0.038,0.561-0.21,0.765l8.459,9.345l4.805-1.677l-0.007-0.03
	c-0.053-0.323,0.063-0.633,0.282-0.844l-10.784-14.966l-27.343-6.092l-9.928,6.204c0.032,0.074,0.057,0.153,0.069,0.235
	c0.086,0.523-0.271,1.016-0.797,1.1c-0.503,0.08-0.978-0.243-1.091-0.73l-22.004,1.85l-6.054,4.896l11.992-0.008l26.27-8.437
	l-0.002-0.007c-0.084-0.522,0.271-1.015,0.797-1.099c0.525-0.085,1.019,0.271,1.104,0.794
	C107.982,16.129,107.891,16.414,107.705,16.623L107.705,16.623z M104.401,27.877c-0.525,0.084-1.019-0.271-1.104-0.794
	c-0.084-0.523,0.272-1.016,0.798-1.1c0.523-0.083,1.019,0.272,1.103,0.794c0.029,0.172,0.008,0.341-0.05,0.494l21.094,11.691
	l0.044-0.054l-11.961-14.073l-34.512,0.022l-11.963,3.842l0.002,0.007c0.084,0.523-0.273,1.015-0.799,1.1
	c-0.523,0.084-1.019-0.271-1.103-0.794c-0.085-0.523,0.272-1.016,0.797-1.1c0.429-0.069,0.837,0.155,1.018,0.524l11.143-3.579
	l-11.474,0.007l-10.742,8.692l24.439,9.063l8.891-0.623l-15.235-12.2c-0.134,0.125-0.306,0.214-0.503,0.245
	c-0.523,0.084-1.019-0.271-1.103-0.794c-0.085-0.522,0.271-1.015,0.797-1.099s1.019,0.271,1.104,0.793
	c0.036,0.23-0.012,0.454-0.122,0.64l15.467,12.387l18.753-1.314L88.254,26.734c-0.142,0.158-0.336,0.269-0.562,0.306
	c-0.525,0.084-1.019-0.271-1.104-0.794c-0.084-0.523,0.273-1.015,0.797-1.1c0.525-0.083,1.021,0.271,1.104,0.794
	c0.032,0.2,0,0.396-0.082,0.566l21.224,14.118l16.417-1.15c0.006-0.095,0.027-0.186,0.061-0.271l-21.096-11.691
	C104.869,27.701,104.655,27.836,104.401,27.877L104.401,27.877z M80.854,14.904c-0.304,0.049-0.597-0.049-0.807-0.242l-5.836,4.722
	l21.598-1.815c0.026-0.438,0.354-0.816,0.808-0.889c0.345-0.055,0.676,0.079,0.887,0.325l9.691-6.056L98.891,9.1l-17.235,4.738
	C81.72,14.349,81.366,14.822,80.854,14.904L80.854,14.904z M81.582,13.572l16.735-4.601l-9.894-2.204
	c-0.118,0.31-0.395,0.549-0.746,0.605c-0.415,0.067-0.812-0.142-1-0.491l-27.443,9.993l0.01,0.043
	c0.084,0.522-0.273,1.015-0.799,1.099c-0.378,0.061-0.741-0.108-0.944-0.402l-7.76,3.825l23.98-2.016l6.152-4.977
	c-0.061-0.101-0.105-0.215-0.125-0.339c-0.084-0.522,0.273-1.015,0.798-1.1C80.989,12.94,81.41,13.182,81.582,13.572L81.582,13.572z
	 M110.344,6.797c0.353-0.057,0.628-0.296,0.746-0.604l2.732,0.616l-6.295,3.933l-8.069-1.798l9.852-2.708
	C109.481,6.626,109.903,6.868,110.344,6.797L110.344,6.797z M111.151,5.925c0.005-0.074,0.003-0.15-0.01-0.228
	c-0.085-0.522-0.578-0.878-1.104-0.794c-0.514,0.083-0.866,0.556-0.802,1.066L98.884,8.815l-10.4-2.316
	c0.007-0.074,0.004-0.149-0.009-0.225c-0.084-0.523-0.579-0.879-1.104-0.795s-0.881,0.577-0.797,1.099l0.009,0.044L59.14,16.616
	c-0.188-0.349-0.585-0.559-1-0.492c-0.457,0.074-0.786,0.456-0.809,0.898l-44.926,4.188c-0.116-0.481-0.588-0.8-1.088-0.72
	c-0.525,0.084-0.882,0.577-0.798,1.1c0.085,0.522,0.579,0.878,1.104,0.793c0.457-0.074,0.787-0.456,0.808-0.898l44.927-4.188
	c0.005,0.024,0.012,0.048,0.02,0.072l-8.387,4.137L29.535,23.14c-0.114-0.487-0.588-0.81-1.091-0.729
	c-0.525,0.084-0.882,0.577-0.797,1.099c0.084,0.523,0.579,0.879,1.103,0.794c0.454-0.073,0.782-0.451,0.809-0.889l18.755-1.577
	l-14.058,6.933c-0.205-0.295-0.567-0.463-0.945-0.402c-0.525,0.084-0.883,0.576-0.798,1.099c0.085,0.522,0.578,0.879,1.104,0.794
	c0.525-0.084,0.882-0.576,0.797-1.099c-0.008-0.051-0.02-0.099-0.034-0.146l14.685-7.242l24.275-2.041l-6.002,4.856l-11.605,0.007
	l-0.002-0.014c-0.085-0.522-0.579-0.879-1.104-0.794c-0.525,0.084-0.883,0.576-0.797,1.099c0.084,0.522,0.579,0.879,1.103,0.795
	c0.427-0.069,0.741-0.406,0.801-0.811l11.264-0.007l-10.604,8.581l-10.27-3.809c0.023-0.113,0.029-0.233,0.009-0.354
	c-0.085-0.523-0.578-0.879-1.104-0.794c-0.525,0.084-0.882,0.576-0.797,1.1c0.084,0.522,0.579,0.878,1.103,0.794
	c0.306-0.049,0.554-0.236,0.692-0.487l10.118,3.752l-7.66,6.196L14.86,33.473c0.003-0.063,0-0.129-0.011-0.195
	c-0.085-0.522-0.578-0.878-1.104-0.794c-0.525,0.084-0.882,0.577-0.797,1.1c0.084,0.522,0.579,0.879,1.103,0.795
	c0.363-0.06,0.646-0.312,0.758-0.635l33.394,6.328l-2.521,2.039c-0.21-0.192-0.503-0.29-0.805-0.242
	c-0.525,0.085-0.883,0.577-0.799,1.1c0.086,0.523,0.579,0.879,1.104,0.795c0.525-0.085,0.882-0.577,0.797-1.101
	c-0.02-0.123-0.063-0.237-0.123-0.338l2.701-2.185l18.359,3.479l-38.157,2.674L9.593,41.651c0.007-0.079,0.004-0.161-0.01-0.243
	c-0.084-0.522-0.578-0.879-1.103-0.794c-0.524,0.084-0.882,0.576-0.798,1.1c0.086,0.522,0.579,0.878,1.104,0.793
	c0.345-0.055,0.618-0.286,0.74-0.588l18.326,4.438l-25.95,1.818c-0.108-0.494-0.586-0.824-1.094-0.742
	c-0.525,0.084-0.882,0.576-0.797,1.099c0.084,0.522,0.579,0.878,1.103,0.794c0.449-0.072,0.774-0.443,0.808-0.876l26.814-1.88
	l17.274,4.183l-12.976,3.185c-0.164-0.405-0.594-0.658-1.045-0.586c-0.525,0.084-0.882,0.577-0.797,1.1
	c0.084,0.522,0.577,0.878,1.103,0.794c0.504-0.081,0.854-0.539,0.805-1.04l13.494-3.311l53.614,12.982l-32.387-0.705l-0.005-0.036
	c-0.086-0.522-0.579-0.878-1.104-0.794c-0.524,0.085-0.882,0.577-0.797,1.1c0.084,0.522,0.579,0.879,1.104,0.794
	c0.418-0.066,0.73-0.395,0.797-0.788l32.706,0.713l0.004,0.035c0.086,0.523,0.579,0.878,1.104,0.793
	c0.525-0.084,0.882-0.575,0.797-1.099c-0.008-0.047-0.018-0.092-0.031-0.136l15.024-7.231l21.053,4.05
	c-0.004,0.065,0,0.131,0.011,0.198c0.085,0.522,0.579,0.878,1.104,0.794s0.881-0.577,0.797-1.1l-0.006-0.033l9.62-3.375v-0.293
	l-9.711,3.408c-0.187-0.355-0.587-0.568-1.006-0.501c-0.227,0.036-0.421,0.147-0.563,0.306l-11.954-7.952l19.59-9.43
	c0.204,0.164,0.475,0.244,0.755,0.199c0.475-0.076,0.813-0.487,0.81-0.951L150,40.84v-0.307l-2.125,1.023
	c-0.141-0.446-0.594-0.733-1.069-0.657c-0.143,0.023-0.272,0.075-0.384,0.15l-5.598-6.183l4.696-1.64
	c0.186,0.356,0.586,0.57,1.006,0.503c0.524-0.084,0.881-0.576,0.797-1.1l-0.005-0.031L150,31.664v-0.292l-2.773,0.968
	c-0.187-0.356-0.587-0.57-1.007-0.503c-0.104,0.017-0.201,0.049-0.29,0.095l-10.603-14.714L150,20.486v-0.282l-14.914-3.322
	l-4.549-6.313L150,14.947v-0.282l-19.706-4.433l-6.184-8.583c0.219-0.21,0.335-0.521,0.282-0.843
	c-0.084-0.522-0.579-0.878-1.104-0.793c-0.523,0.084-0.881,0.576-0.797,1.099c0.015,0.083,0.038,0.161,0.07,0.235L114.154,6.6
	L111.151,5.925L111.151,5.925z M131.579,25.635c-0.524,0.083-1.019-0.272-1.103-0.794l-0.003-0.015l-15.786,0.011l11.811,13.895
	c0.104-0.065,0.226-0.111,0.355-0.133c0.42-0.067,0.82,0.146,1.007,0.503l12.482-4.357l-8.38-9.259
	C131.851,25.559,131.721,25.611,131.579,25.635L131.579,25.635z M123.596,1.905c0.104-0.017,0.2-0.049,0.29-0.095l6.002,8.329
	l-15.351-3.453l8.171-5.107C122.92,1.827,123.252,1.961,123.596,1.905L123.596,1.905z M100.047,50.674
	c-0.523,0.085-1.019-0.271-1.103-0.794c-0.01-0.065-0.014-0.131-0.012-0.194l-30.953-5.866l-38.337,2.687l16.951,4.104l17.316-4.247
	c-0.05-0.499,0.301-0.959,0.805-1.039c0.525-0.084,1.019,0.271,1.104,0.794c0.01,0.066,0.014,0.133,0.01,0.197l51.554,9.918
	l2.044-0.983l-18.651-5.137C100.648,50.4,100.382,50.62,100.047,50.674L100.047,50.674z M100.85,49.848l18.955,5.22l6.405-3.083
	l-16.653-11.079l-18.813,1.318l8.494,6.802c0.136-0.125,0.308-0.213,0.503-0.245c0.525-0.084,1.019,0.271,1.104,0.795
	C100.859,49.667,100.861,49.76,100.85,49.848L100.85,49.848z M99.065,49.24l-0.016,0.027l-17.294-6.414l8.583-0.602L99.065,49.24
	L99.065,49.24z M138.566,60.204l-0.013,0.027l-18.344-5.053l6.269-3.016L138.566,60.204L138.566,60.204z M102.276,63.504l14.69-7.07
	l-51.188-9.849c-0.113,0.322-0.396,0.574-0.756,0.632c-0.452,0.072-0.881-0.181-1.047-0.586l-16.8,4.121l53.409,12.932
	c0.121-0.301,0.395-0.533,0.741-0.589C101.706,63.033,102.073,63.205,102.276,63.504L102.276,63.504z M48.838,39.911l7.604-6.151
	l24.022,8.908l-12.468,0.875L48.838,39.911L48.838,39.911z M98.312,49.288l-29.253-5.544L81.09,42.9L98.312,49.288L98.312,49.288z
	 M107.911,10.827l26.768,5.963l-4.549-6.313l-15.926-3.583L107.911,10.827L107.911,10.827z M119.832,55.36l16.197,4.461l-18.191-3.5
	L119.832,55.36z"/>
</svg>
